<svg width="267" height="46" viewBox="0 0 267 46" fill="none" xmlns="http://www.w3.org/2000/svg">
<path d="M18.3328 33.9562L8.78998 4.98828H4.17871V41.0951H5.86274V10.107L16.0621 41.0951H17.743L27.8725 10.367V41.0951H32.2523V4.98828H27.8725L18.3328 33.9562Z" fill="white"/>
<path d="M96.6447 10.9197C98.0973 10.9197 99.2739 9.41329 99.2739 7.55166C99.2739 5.6932 98.0973 4.18359 96.6447 4.18359C95.1922 4.18359 94.0156 5.6932 94.0156 7.55166C94.0156 9.41012 95.1922 10.9197 96.6447 10.9197Z" fill="white"/>
<path d="M190.091 4.98828H179.152V41.0951H190.091C197.81 41.0951 203.452 33.0111 203.452 23.0433C203.452 12.2255 198.628 4.98828 190.091 4.98828ZM188.254 39.3762H183.532V6.71037H187.82C195.168 6.71037 198.711 13.6717 198.711 23.0433C198.711 32.1548 196.386 39.3762 188.254 39.3762Z" fill="white"/>
<path d="M261.674 38.2605V14.6016L256.425 16.46V17.0911C256.425 17.0911 257.728 17.2783 257.728 19.2953V38.2573C257.728 40.2743 256.587 40.4614 256.587 40.4614V41.0926H262.815V40.4614C262.815 40.4646 261.674 40.2743 261.674 38.2605Z" fill="white"/>
<path d="M64.8801 25.4655C61.1378 23.5182 60.9951 21.498 60.9951 19.9313C60.9951 18.3646 62.0575 16.2746 64.2077 16.1732C67.0937 16.0368 68.9522 18.39 70.1669 23.4833H70.8011V17.1405C70.8011 17.1405 68.5367 14.6445 64.6454 14.6445C60.754 14.6445 57.7031 17.4513 57.7031 21.7263C57.7031 24.9993 59.3174 27.9424 63.954 30.1846C68.0325 32.154 68.6921 33.5717 68.6921 35.5506C68.6921 37.5296 67.3601 40.0921 64.8198 40.257C61.8862 40.4473 58.6133 37.9419 58.3247 32.6202H57.6904V39.8004C58.052 40.0128 61.1727 41.7952 64.5122 41.7952C68.0642 41.7952 72.2315 39.4483 71.9365 33.4543C71.7272 29.1507 68.6255 27.4127 64.8801 25.4655Z" fill="white"/>
<path d="M52.6697 38.2495V23.1059C52.6697 16.6806 48.6736 14.6445 45.0867 14.6445C41.0305 14.6445 37.8273 17.188 37.8273 17.188L37.8242 23.5055H38.4616C40.152 17.4481 42.6891 16.0748 45.0741 16.17C48.2709 16.3 48.7276 20.3341 48.7276 23.033C48.7276 24.1081 48.1821 25.6906 47.2782 26.2774C46.1492 27.01 44.6745 27.7584 42.7811 28.4466C37.4246 30.3939 36.8886 33.7493 36.8505 35.8075C36.8061 38.1258 38.3601 41.792 42.5655 41.792C47.1989 41.792 48.7244 36.5528 48.7244 36.5528V41.0816H53.8114V40.4505C53.8082 40.4537 52.6697 40.2634 52.6697 38.2495ZM48.7244 31.58C48.7244 31.58 48.6197 36.0517 46.165 37.9514C43.4915 40.0192 40.3645 38.0973 40.3645 35.4587C40.3645 29.6042 45.8828 29.9657 48.7244 27.2351V31.58Z" fill="white"/>
<path d="M83.0275 25.4655C79.2852 23.5182 79.1425 21.498 79.1425 19.9313C79.1425 18.3646 80.205 16.2746 82.3552 16.1732C85.2412 16.0368 87.0997 18.39 88.3143 23.4833H88.9486V17.1405C88.9486 17.1405 86.6842 14.6445 82.7928 14.6445C78.8983 14.6445 75.8506 17.4513 75.8506 21.7263C75.8506 24.9993 77.4648 27.9424 82.1015 30.1846C86.1799 32.154 86.8396 33.5717 86.8396 35.5506C86.8396 37.5296 85.5076 40.0921 82.9673 40.257C80.0337 40.4473 76.7608 37.9419 76.4722 32.6202H75.8379V39.8004C76.1994 40.0128 79.3201 41.7952 82.6596 41.7952C86.2117 41.7952 90.3789 39.4483 90.084 33.4543C89.8747 29.1507 86.773 27.4127 83.0275 25.4655Z" fill="white"/>
<path d="M145.683 14.625C140.301 14.625 135.938 20.7078 135.938 28.2114C135.938 35.715 140.301 41.7947 145.683 41.7947C151.065 41.7947 155.429 35.7119 155.429 28.2114C155.429 20.7078 151.068 14.625 145.683 14.625ZM146.352 40.2438C143.409 40.4183 140.726 35.1727 140.358 28.5254C139.991 21.8781 142.077 16.3503 145.02 16.1758C147.964 16.0014 150.647 21.247 151.014 27.8943C151.379 34.5416 149.296 40.0694 146.352 40.2438Z" fill="white"/>
<path d="M132.064 38.2464L132.054 21.0952C131.943 17.5147 129.276 14.6445 125.994 14.6445C123.441 14.6445 121.262 16.3793 120.364 18.8308C119.467 16.3793 117.285 14.6445 114.735 14.6445C112.534 14.6445 110.612 15.9385 109.547 17.8699V15.3581H104.298V15.9892C104.298 15.9892 105.601 16.1795 105.601 18.1934V38.2432C105.601 40.2602 104.46 40.4473 104.46 40.4473V41.0784H110.688V40.4473C110.688 40.4473 109.547 40.257 109.547 38.2432V21.3489C109.547 19.0623 111.183 17.2102 113.203 17.2102C115.223 17.2102 116.86 19.0623 116.86 21.3489V38.2464C116.86 40.2634 115.718 40.4505 115.718 40.4505V41.0816H121.947V40.4505C121.947 40.4505 120.805 40.2602 120.805 38.2464V21.3489C120.805 19.0623 122.442 17.2102 124.462 17.2102C126.482 17.2102 128.119 19.0623 128.119 21.3489V38.2464C128.119 40.2634 126.977 40.4505 126.977 40.4505V41.0816H133.206V40.4505C133.206 40.4505 132.064 40.2602 132.064 38.2464Z" fill="white"/>
<path d="M223.272 38.2515V15.3633H218.023V15.9944C218.023 15.9944 219.327 16.1847 219.327 18.1985V35.096C219.327 37.3826 217.69 39.2347 215.67 39.2347C213.65 39.2347 212.013 37.3826 212.013 35.096V15.3633H206.765V15.9944C206.765 15.9944 208.068 16.1847 208.068 18.1985V35.1213C208.068 38.8097 210.786 41.8004 214.141 41.8004C216.342 41.8004 218.264 40.5064 219.33 38.575V41.0868H224.417V40.4557C224.414 40.4557 223.272 40.2654 223.272 38.2515Z" fill="white"/>
<path d="M98.9001 38.2515V15.3633H93.6514V15.9944C93.6514 15.9944 94.9548 16.1847 94.9548 18.1985V38.2484C94.9548 40.2654 93.8131 40.4525 93.8131 40.4525V41.0836H100.042V40.4525C100.042 40.4557 98.9001 40.2654 98.9001 38.2515Z" fill="white"/>
<path d="M259.426 10.9197C260.879 10.9197 262.055 9.41329 262.055 7.55166C262.055 5.6932 260.879 4.18359 259.426 4.18359C257.973 4.18359 256.797 5.6932 256.797 7.55166C256.797 9.41012 257.973 10.9197 259.426 10.9197Z" fill="white"/>
<path d="M247.697 7.84375H246.232C245.563 15.3664 241.012 15.3664 240.342 15.3664C239.673 15.3664 234.285 15.3664 234.285 15.3664V7.84375H232.82C232.151 15.3664 227.6 15.3664 226.93 15.3664C226.258 15.3664 226.191 15.3664 226.191 15.3664V17.0853H230.34V36.707C230.34 39.3361 232.198 41.8035 235.883 41.8035C237.523 41.8035 238.868 41.3214 240.073 40.462L239.708 39.8562C239.029 40.1353 237.878 40.2685 237.174 40.2685C234.954 40.2685 234.285 38.2578 234.285 36.6277V17.0853H243.752V36.707C243.752 39.3361 245.61 41.8035 249.295 41.8035C250.935 41.8035 252.28 41.3214 253.485 40.462L253.123 39.8562C252.445 40.1353 251.293 40.2685 250.589 40.2685C248.369 40.2685 247.7 38.2578 247.7 36.6277V17.0853H254.202V15.3664H247.7V7.84375H247.697Z" fill="white"/>
</svg>
